<?xml version="1.0" standalone="no"?>
<!DOCTYPE svg PUBLIC "-//W3C//DTD SVG 20010904//EN"
 "http://www.w3.org/TR/2001/REC-SVG-20010904/DTD/svg10.dtd">
<svg version="1.0" xmlns="http://www.w3.org/2000/svg"
 width="246.000000pt" height="200.000000pt" viewBox="0 0 246.000000 200.000000"
 preserveAspectRatio="xMidYMid meet">

<g transform="translate(0.000000,200.000000) scale(0.100000,-0.100000)"
fill="#000000" stroke="none">
<path d="M0 1000 l0 -1000 1230 0 1230 0 0 1000 0 1000 -1230 0 -1230 0 0
-1000z m754 555 c16 -35 46 -77 74 -103 l47 -44 -40 16 c-104 44 -163 171
-130 281 8 28 9 25 15 -30 4 -34 19 -87 34 -120z m886 50 c119 -25 117 -34 -6
-34 -61 0 -133 -5 -160 -12 -69 -17 -177 -67 -291 -137 -187 -113 -253 -137
-373 -136 -56 0 -85 6 -116 22 -81 42 -144 128 -144 197 0 30 1 30 19 -10 44
-97 118 -145 224 -145 79 0 155 25 262 87 44 25 105 60 135 77 166 96 300 123
450 91z m-965 -131 c14 -18 52 -46 88 -63 62 -30 55 -40 -15 -21 -71 20 -139
102 -138 167 1 27 1 27 20 -11 11 -21 31 -53 45 -72z m1117 44 c35 -12 31 -13
-70 -13 -136 -1 -205 -21 -402 -120 -81 -40 -164 -77 -186 -80 -39 -7 -38 -7
17 23 31 16 83 48 115 70 98 66 216 119 304 136 42 8 183 -2 222 -16z m-996
-336 c27 -21 49 -62 34 -62 -5 0 -10 5 -10 10 0 6 -11 22 -25 35 -66 67 -215
-14 -280 -151 -65 -137 -15 -251 101 -230 38 8 42 20 18 55 -12 16 -23 22 -40
18 -13 -2 -24 0 -24 4 0 5 16 9 35 9 26 0 43 -7 61 -27 l24 -26 31 29 c64 60
100 165 79 229 -23 69 -86 82 -136 28 -28 -31 -33 -96 -8 -131 19 -28 1 -29
-26 -2 -40 40 -17 135 40 165 56 29 109 16 135 -35 35 -68 7 -174 -68 -256
-48 -53 -48 -53 -32 -83 20 -40 49 -54 94 -47 l36 5 -30 -14 c-16 -8 -36 -14
-43 -15 -26 0 -70 30 -83 58 -12 29 -13 29 -80 24 -67 -5 -69 -4 -104 31 -36
36 -40 51 -35 137 2 47 39 127 81 175 65 74 202 110 255 67z m475 8 c22 -12
55 -70 39 -70 -5 0 -10 5 -10 10 0 6 -11 22 -25 35 -91 92 -305 -93 -305 -263
0 -61 18 -95 60 -112 30 -12 95 -7 105 9 2 5 -5 21 -17 36 -15 19 -27 26 -44
22 -13 -2 -24 0 -24 4 0 5 18 9 39 9 30 0 44 -6 60 -26 17 -21 22 -23 39 -13
11 7 36 37 56 66 56 86 60 183 9 223 -36 28 -60 25 -99 -14 -27 -27 -34 -42
-34 -73 0 -21 7 -49 16 -61 22 -31 0 -28 -25 4 -54 69 8 174 102 174 27 0 41
-7 61 -31 55 -65 25 -197 -63 -283 l-40 -39 19 -37 c21 -41 52 -55 98 -44 19
5 24 3 17 -4 -5 -6 -26 -13 -46 -17 -29 -5 -41 -2 -67 20 -17 14 -34 34 -37
44 -5 17 -13 18 -63 14 -43 -4 -67 -1 -90 11 -34 17 -62 61 -62 96 0 18 -6 15
-38 -20 -42 -43 -62 -49 -82 -25 -16 19 8 85 45 128 37 41 38 33 5 -33 -16
-33 -30 -66 -30 -75 0 -50 93 41 103 100 15 89 90 189 170 226 46 20 127 25
158 9z m389 -16 c109 8 100 8 205 0 53 -4 105 -2 127 4 20 5 39 8 42 5 3 -3
-37 -46 -88 -97 -107 -106 -176 -196 -235 -307 -31 -57 -48 -79 -62 -79 -18 0
-18 3 7 53 57 112 142 219 269 338 l70 65 -80 0 c-44 -1 -97 3 -119 7 l-38 8
-97 -98 c-101 -103 -177 -206 -231 -311 -22 -44 -37 -62 -51 -62 -25 0 -24 2
11 69 47 87 126 187 230 291 l96 96 -76 -1 c-82 0 -150 11 -150 24 0 5 19 4
43 -1 23 -5 80 -7 127 -4z m-717 -120 c9 -10 -4 -34 -19 -34 -16 0 -16 2 -8
24 6 17 16 20 27 10z m487 -9 c0 -16 -27 -32 -37 -21 -7 7 16 36 28 36 5 0 9
-7 9 -15z m-80 -117 c-17 -35 -30 -69 -30 -75 0 -24 28 -13 60 23 17 20 34 34
36 31 10 -9 -68 -87 -87 -87 -25 0 -38 29 -28 65 7 26 63 105 74 105 2 0 -9
-28 -25 -62z m-704 -403 c22 -17 12 -20 -17 -4 -16 8 -26 7 -45 -6 -29 -19
-31 -55 -4 -80 17 -15 24 -16 46 -7 33 16 39 15 24 -3 -7 -8 -25 -15 -40 -15
-57 0 -84 76 -40 112 27 22 50 23 76 3z m175 5 c23 -13 25 -55 3 -68 -14 -8
-14 -10 0 -21 9 -8 16 -18 16 -24 0 -6 -13 2 -29 17 -33 32 -57 29 -64 -6 -2
-13 -5 7 -6 45 l-1 67 31 0 c17 0 39 -5 50 -10z m159 1 c-37 -5 -46 -10 -48
-28 -3 -21 1 -23 45 -25 l48 -1 -45 -6 c-36 -5 -45 -10 -45 -26 0 -16 9 -21
45 -26 l45 -6 -52 -1 -53 -2 0 65 0 65 53 -2 52 -1 -45 -6z m211 -52 c16 -34
28 -63 25 -66 -3 -3 -8 2 -12 11 -9 23 -89 23 -98 0 -4 -9 -9 -14 -12 -11 -6
5 53 127 61 127 3 0 19 -27 36 -61z m199 51 c0 -5 -11 -10 -25 -10 -24 0 -25
-3 -27 -57 l-2 -58 -3 58 c-3 48 -7 57 -23 57 -10 0 -22 5 -25 10 -4 6 15 10
49 10 31 0 56 -4 56 -10z m90 -56 c0 -41 -4 -63 -10 -59 -18 11 -12 125 7 125
2 0 3 -30 3 -66z m105 16 c14 -27 27 -50 30 -50 3 0 16 23 31 51 14 28 28 49
30 46 6 -5 -53 -127 -61 -127 -5 0 -65 115 -65 125 0 15 12 0 35 -45z m225 41
c-37 -5 -46 -10 -48 -28 -3 -21 1 -23 45 -25 l48 -1 -45 -6 c-36 -5 -45 -10
-45 -26 0 -16 9 -21 45 -26 l45 -6 -52 -1 -53 -2 0 65 0 65 53 -2 52 -1 -45
-6z"/>
<path d="M750 495 c0 -24 3 -26 38 -23 29 2 37 7 37 23 0 16 -8 21 -37 23 -35
3 -38 1 -38 -23z"/>
<path d="M1141 492 c-17 -32 -13 -42 14 -42 28 0 32 17 11 45 -13 18 -14 18
-25 -3z"/>
</g>
</svg>
